<?xml version="1.0" standalone="no"?>
<!DOCTYPE svg PUBLIC "-//W3C//DTD SVG 20010904//EN"
 "http://www.w3.org/TR/2001/REC-SVG-20010904/DTD/svg10.dtd">
<svg version="1.0" xmlns="http://www.w3.org/2000/svg"
 width="16.000000pt" height="16.000000pt" viewBox="0 0 16.000000 16.000000"
 preserveAspectRatio="xMidYMid meet">
<metadata>
Created by potrace 1.11, written by Peter Selinger 2001-2013
</metadata>
<g transform="translate(0.000000,16.000000) scale(0.012500,-0.012500)"
fill="#000000" stroke="none">
<path d="M506 1064 c-245 -58 -432 -302 -425 -554 2 -62 26 -181 43 -208 11
-18 78 18 71 37 -90 230 7 492 224 604 189 99 412 63 564 -90 52 -52 111 -160
126 -233 14 -62 6 -196 -13 -249 -9 -24 -15 -45 -14 -46 2 -1 18 -10 36 -19
l33 -17 13 33 c60 143 39 357 -48 492 -133 208 -372 305 -610 250z"/>
<path d="M600 880 l0 -80 40 0 40 0 0 80 0 80 -40 0 -40 0 0 -80z"/>
<path d="M376 875 l-28 -23 42 -58 c24 -33 45 -61 47 -63 5 -7 55 23 60 36 4
10 -65 114 -84 126 -5 3 -21 -5 -37 -18z"/>
<path d="M822 838 c-24 -33 -41 -65 -39 -72 5 -12 55 -42 60 -35 1 2 22 30 46
62 41 56 42 59 24 73 -44 35 -46 34 -91 -28z"/>
<path d="M635 728 c-4 -16 -24 -133 -41 -247 -5 -31 -16 -55 -35 -74 -52 -51
-51 -122 2 -173 25 -24 39 -29 80 -29 46 0 54 4 86 39 32 35 35 42 30 83 -3
31 -14 54 -34 76 -27 29 -32 46 -53 172 -12 77 -23 146 -23 153 0 6 -2 12 -4
12 -2 0 -5 -6 -8 -12z"/>
<path d="M221 658 c-6 -17 -8 -35 -4 -39 15 -14 137 -49 145 -41 4 4 10 21 14
38 6 29 5 30 -63 52 -38 12 -72 22 -75 22 -3 0 -11 -14 -17 -32z"/>
<path d="M962 668 c-63 -21 -64 -22 -58 -52 4 -17 10 -34 15 -39 8 -8 127 27
144 42 10 10 -12 71 -26 70 -7 0 -41 -10 -75 -21z"/>
<path d="M285 449 c-33 -11 -63 -23 -67 -27 -9 -9 10 -72 21 -72 28 0 141 44
141 55 0 21 -19 65 -27 64 -5 -1 -35 -10 -68 -20z"/>
<path d="M910 445 c-17 -44 -12 -50 53 -73 80 -28 83 -28 96 10 13 38 11 41
-59 63 -30 10 -61 20 -67 22 -7 3 -17 -7 -23 -22z"/>
</g>
</svg>
